<?xml version="1.0" encoding="UTF-8" standalone="no"?>
<!-- Created with Inkscape (http://www.inkscape.org/) -->

<svg
   width="500"
   height="500"
   viewBox="0 0 132.29167 132.29167"
   version="1.1"
   id="svg1816"
   inkscape:version="1.1 (c68e22c387, 2021-05-23)"
   sodipodi:docname="drawing.svg"
   xmlns:inkscape="http://www.inkscape.org/namespaces/inkscape"
   xmlns:sodipodi="http://sodipodi.sourceforge.net/DTD/sodipodi-0.dtd"
   xmlns="http://www.w3.org/2000/svg"
   xmlns:svg="http://www.w3.org/2000/svg">
  <sodipodi:namedview
     id="namedview1818"
     pagecolor="#ffffff"
     bordercolor="#999999"
     borderopacity="1"
     inkscape:pageshadow="0"
     inkscape:pageopacity="0"
     inkscape:pagecheckerboard="0"
     inkscape:document-units="mm"
     showgrid="false"
     units="px"
     inkscape:zoom="1.8101934"
     inkscape:cx="229.53349"
     inkscape:cy="312.94999"
     inkscape:window-width="1920"
     inkscape:window-height="1017"
     inkscape:window-x="-8"
     inkscape:window-y="-8"
     inkscape:window-maximized="1"
     inkscape:current-layer="layer1" />
  <defs
     id="defs1813" />
  <g
     inkscape:label="Layer 1"
     inkscape:groupmode="layer"
     id="layer1">
    <path
       style="fill:#000000;stroke-width:0.738564"
       d="M 54.143055,131.44191 C 33.703593,127.5661 15.808909,113.92948 6.6675485,95.263276 1.5207737,84.75381 0.1886216,78.755314 0.1886216,66.089975 c 0,-12.66347 1.33151,-18.660513 6.4772519,-29.173329 C 14.953281,19.985507 31.047329,6.7782672 49.538988,1.7337423 c 8.470386,-2.31074218 24.764997,-2.31074218 33.235411,0 18.491661,5.0445249 34.585701,18.2517647 42.873081,35.1829037 5.14577,10.512816 6.47728,16.509859 6.47728,29.173329 0,12.663442 -1.33151,18.660484 -6.47728,29.173301 -8.30662,16.970414 -24.65088,30.356554 -42.873081,35.113514 -7.81976,2.04137 -20.914086,2.52849 -28.631344,1.06512 z M 75.711199,96.186484 C 75.677984,78.782531 75.445734,72.167048 74.913297,73.475612 73.77649,76.270193 60.898136,111.41979 60.748181,112.13722 c -0.121986,0.58416 13.242384,8.5141 14.455928,8.57754 0.304655,0.0167 0.532855,-11.02179 0.50709,-24.528276 z M 62.809481,99.510011 C 66.44763,90.173669 75.063701,65.888015 74.823247,65.647561 74.648503,65.472819 64.137529,65.417827 51.465267,65.525297 l -23.040482,0.1954 16.465614,17.508855 c 9.056083,9.629859 16.679327,17.523248 16.940521,17.540898 0.261276,0.0167 0.701541,-0.54955 0.978561,-1.260411 z M 45.408041,59.882319 c 1.756114,-1.78936 3.069871,-3.622602 2.919469,-4.073891 -0.150459,-0.451262 -3.568196,-4.471083 -7.595024,-8.932924 -7.173795,-7.948753 -7.386055,-8.112442 -10.520603,-8.112442 h -3.199114 v 12.186331 12.186305 h 7.601137 7.601163 z m 30.335092,-12.810382 -0.01396,-16.063789 -3.862579,4.080059 c -2.124415,2.244054 -8.961118,9.472758 -15.192697,16.063789 l -11.33006,11.983702 h 15.207575 15.207576 l -0.01396,-16.063761 z m 18.967151,-1.249889 c 8.465056,-8.100801 15.501786,-14.99713 15.637166,-15.325235 0.13539,-0.328075 -2.35725,-0.597728 -5.53922,-0.599235 -3.18197,-0.0014 -10.521462,-0.219406 -16.309956,-0.484145 l -10.52454,-0.481465 v 16.055555 c 0,9.344799 0.28118,15.95269 0.672761,15.809378 0.370031,-0.135384 7.598735,-6.874081 16.063789,-14.974853 z M 24.65488,44.117658 c 0.124777,-1.726385 -7.26e-4,-3.138901 -0.279757,-3.138901 -0.631142,0 -6.499301,5.214605 -6.855125,6.091644 -0.143479,0.353422 1.352194,0.53989 3.323524,0.414387 L 24.42777,47.25645 Z m 84.56889,-4.825592 4.29246,-2.568336 -2.16833,-0.755862 c -2.05851,-0.717619 -2.40682,-0.510664 -6.87743,4.086145 -5.058784,5.201598 -5.270234,5.235514 4.7533,-0.761947 z"
       id="path1610" />
  </g>
</svg>
