<?xml version="1.0" encoding="UTF-8" standalone="no"?>
<!-- Created with Inkscape (http://www.inkscape.org/) -->

<svg
   width="210mm"
   height="39mm"
   viewBox="0 0 210 39"
   version="1.1"
   id="svg2353"
   inkscape:version="1.1 (c68e22c387, 2021-05-23)"
   sodipodi:docname="string.svg"
   xmlns:inkscape="http://www.inkscape.org/namespaces/inkscape"
   xmlns:sodipodi="http://sodipodi.sourceforge.net/DTD/sodipodi-0.dtd"
   xmlns="http://www.w3.org/2000/svg"
   xmlns:svg="http://www.w3.org/2000/svg">
  <sodipodi:namedview
     id="namedview2355"
     pagecolor="#ffffff"
     bordercolor="#999999"
     borderopacity="1"
     inkscape:pageshadow="0"
     inkscape:pageopacity="0"
     inkscape:pagecheckerboard="0"
     inkscape:document-units="mm"
     showgrid="false"
     height="38mm"
     inkscape:zoom="0.74118967"
     inkscape:cx="244.87659"
     inkscape:cy="351.46199"
     inkscape:window-width="1920"
     inkscape:window-height="1017"
     inkscape:window-x="-8"
     inkscape:window-y="-8"
     inkscape:window-maximized="1"
     inkscape:current-layer="layer1" />
  <defs
     id="defs2350" />
  <g
     inkscape:label="Layer 1"
     inkscape:groupmode="layer"
     id="layer1">
    <path
       style="fill:#FFFFFF;stroke-width:0.80313"
       d="m 0.27341631,29.999571 c 0,-5.666348 0.39489477,-9.805346 1.09549039,-11.482102 1.8935395,-4.531877 9.0028933,-9.2339519 10.9768383,-7.260024 1.006075,1.006102 -0.04353,2.194028 -2.7542795,3.117293 -4.8335042,1.64631 -6.7640489,6.897682 -6.8607798,18.662385 -0.037974,4.619025 -0.2968981,5.822705 -1.2525723,5.822705 -0.99804316,0 -1.20469709,-1.519914 -1.20469709,-8.860257 z M 23.122845,37.730152 c -5.038109,-2.194484 -8.998188,-9.286586 -8.139624,-14.577297 1.096334,-6.755926 4.989775,-11.143801 11.107833,-12.518438 7.790082,-1.7503054 16.748326,4.741445 16.748326,12.136972 0,1.571031 -0.469306,1.632074 -12.548929,1.632074 H 17.741525 l 0.513639,2.568179 c 1.027078,5.135387 5.763189,9.469625 10.354431,9.475787 3.24129,0.003 7.286328,-1.895552 9.190956,-4.316906 1.712165,-2.176666 3.004918,-2.643701 3.792103,-1.370023 0.709289,1.147645 -3.61098,5.788161 -6.520511,7.003832 -3.29138,1.375213 -8.749374,1.359611 -11.949298,-0.0343 z m 16.50401,-16.83249 c 0,-1.659302 -3.066203,-5.211728 -5.65295,-6.549393 -3.026162,-1.5649 -7.6105,-1.509715 -10.377687,0.12506 -2.195865,1.297112 -4.850779,4.931799 -4.850779,6.640883 0,0.592794 3.407674,0.880009 10.440707,0.880009 8.286804,0 10.440709,-0.226142 10.440709,-1.096407 z M 57.697312,37.721501 C 56.372146,37.130012 54.317036,35.608155 53.130399,34.339638 44.346618,24.949633 51.3852,10.25119 64.579689,10.430465 c 6.622238,0.08985 14.272531,4.838518 11.026914,6.844409 -0.60442,0.373544 -1.676987,0.03218 -2.637378,-0.839334 -3.918117,-3.555644 -9.593326,-4.33096 -14.53553,-1.985735 -8.148275,3.866626 -7.853404,16.404885 0.484323,20.593907 4.63228,2.327315 10.195606,1.456352 14.458699,-2.263601 0.768541,-0.670624 1.644711,-0.806612 2.357755,-0.365925 0.975739,0.603055 0.973171,0.896462 -0.01821,2.094466 -3.146925,3.802274 -12.830198,5.528842 -18.018847,3.212849 z m 25.306485,-7.093772 c 0.0064,-6.967558 0.300571,-8.860773 1.913534,-12.324745 2.491497,-5.350753 8.86315,-9.3506353 11.189478,-7.024322 0.788643,0.788643 -1.060285,2.684073 -2.618227,2.684073 -1.723985,0 -5.3113,3.728149 -6.425878,6.678127 -0.469825,1.243506 -0.854226,5.851451 -0.854226,10.239933 0,7.443609 -0.107789,7.979033 -1.606264,7.979033 -1.502296,0 -1.605757,-0.532814 -1.598417,-8.232099 z m 22.447733,6.382686 c -6.676918,-3.530844 -9.210098,-12.652757 -5.37583,-19.358082 2.25899,-3.950435 5.00204,-5.998063 9.34119,-6.973022 12.1843,-2.7376178 21.32864,10.525479 14.86324,21.557908 -3.70738,6.326136 -11.94358,8.414075 -18.8286,4.773196 z m 11.24427,-1.84571 c 11.59548,-4.639605 6.72797,-23.437918 -5.6393,-21.779101 -5.94625,0.797536 -9.58853,5.235253 -9.58853,11.682503 0,4.603392 2.50495,8.387575 6.7868,10.252651 3.22991,1.406843 4.59814,1.381558 8.44103,-0.156022 z m 22.78074,2.523254 c -4.6278,-2.012993 -5.44901,-4.330626 -5.76133,-16.259153 -0.27228,-10.398444 -0.23524,-10.678586 1.40548,-10.678586 1.62136,0 1.68507,0.379128 1.68507,10.026479 0,9.823862 0.0446,10.074682 2.2086,12.413472 2.86374,3.095043 6.87021,3.803488 10.6415,1.88171 3.76679,-1.919502 4.71758,-5.044232 4.77347,-15.688001 0.0434,-8.279301 0.11595,-8.63366 1.76842,-8.63366 1.69203,0 1.7154,0.178788 1.29541,9.903634 -0.48005,11.115298 -1.4925,14.086464 -5.66768,16.632211 -3.02559,1.844829 -8.6136,2.026684 -12.34894,0.401894 z m 28.84753,-0.05342 c -3.79384,-2.683647 -4.21185,-4.829685 -4.21185,-21.623959 0,-15.16550862 0.0549,-15.70093292 1.60627,-15.70093292 1.48028,0 1.60625,0.5354243 1.60625,6.82662192 v 6.826591 h 3.21254 c 2.32015,0 3.21252,0.33466 3.21252,1.204713 0,0.870053 -0.89237,1.204682 -3.21252,1.204682 h -3.21254 v 7.923029 c 0,6.858524 0.22887,8.214068 1.7041,10.089404 1.31912,1.676969 2.27168,2.109673 4.21643,1.915343 1.80938,-0.180913 2.51236,0.08621 2.51236,0.95365 0,1.724989 -5.15964,1.989347 -7.43356,0.380858 z m 22.29149,0.645915 c -2.85649,-1.073337 -5.77599,-3.802183 -7.33294,-6.854032 -3.50082,-6.862197 -0.68717,-16.112267 5.96898,-19.62332 3.3211,-1.751823 9.86913,-1.740318 13.21359,0.02428 3.00404,1.584053 6.23016,6.168231 7.01434,9.967045 l 0.53882,2.61019 h -12.51237 -12.51233 v 2.290617 c 0,3.530904 3.17029,7.57562 6.97766,8.902297 4.30052,1.498514 9.13148,0.175146 12.39159,-3.394066 1.74263,-1.907937 2.52277,-2.290738 3.22906,-1.584448 1.43817,1.4382 -1.24539,4.893096 -5.19282,6.685352 -3.19221,1.44937 -9.20083,1.94761 -11.78358,0.977113 z m 15.02727,-18.834981 c -3.11335,-7.629925 -14.71632,-8.376375 -19.07545,-1.227175 -0.86225,1.414159 -1.56909,2.842251 -1.57073,3.17354 -0.002,0.33129 4.87704,0.602357 10.84156,0.602357 h 10.8446 z"
       id="path2381" />
  </g>
</svg>
